<svg xmlns="http://www.w3.org/2000/svg" viewBox="0 0 27 27"><path d="M1 1h7v7h-7zM10 1h3v1h-1v1h-2zM14 1h1v1h-1zM17 1h1v3h-1v-1h-1v1h-1v-2h2zM19 1h7v7h-7zM2 2v5h5v-5zM20 2v5h5v-5zM3 3h3v3h-3zM9 3h1v1h1v1h-1v1h1v1h-1v1h1v-1h1v2h-3zM12 3h2v2h1v1h2v-1h1v3h-1v-1h-1v1h-1v-1h-1v-1h-1v1h-1zM21 3h3v3h-3zM13 7h1v1h-1zM14 8h1v1h-1zM1 9h1v1h-1zM3 9h5v1h-1v1h-2v-1h-2zM12 9h1v1h-1zM15 9h2v1h-2zM19 9h5v1h-3v1h2v1h-2v1h-1v1h-1v1h1v-1h1v1h1v-1h1v2h-1v2h1v1h-1v1h1v1h-1v1h1v-1h1v1h1v-1h1v5h-7v-1h1v-1h2v-1h-1v-1h-1v1h-2v-1h-2v-1h1v-2h-1v-1h-1v-1h4v-1h-1v-3h-1v-1h3v-2h-1zM2 10h1v1h-1zM8 10h1v1h-1zM11 10h1v3h-1v1h-1v-2h-1v-1h2zM13 10h1v1h-1zM17 10h1v1h-1zM24 10h1v1h1v3h-1v1h1v2h-1v-1h-1v-2h-1v-1h2v-1h-1zM1 11h1v1h-1zM7 11h1v1h-1zM16 11h1v1h-1zM2 12h3v1h-1v1h-2v4h-1v-5h1zM15 12h1v1h-1zM5 13h1v1h-1zM7 13h2v1h-2zM12 13h1v1h-1zM21 13h1v1h-1zM13 14h3v1h1v1h-2v1h-1v1h-1v-2h1v-1h-1zM3 15h1v1h-1zM6 15h6v4h-1v-1h-1v-1h1v-1h-1v1h-2v-1h-2zM4 16h1v1h-1zM5 17h3v1h-3zM23 17h1v1h-1zM9 18h1v1h-1zM18 18v3h3v-3zM1 19h7v7h-7zM12 19h2v1h-1v2h-2v2h-2v-4h1v1h2zM19 19h1v1h-1zM23 19h3v1h-3zM2 20v5h5v-5zM15 20h1v1h-1zM3 21h3v3h-3zM13 22h3v2h-1v1h-1v1h-1v-2h1v-1h-1zM24 23v1h-1v1h2v-2zM17 24h1v1h-1zM9 25h3v1h-3zM15 25h1v1h-1z"/></svg>